<?xml version="1.0" encoding="UTF-8"?>
<svg id="Layer_1" data-name="Layer 1" xmlns="http://www.w3.org/2000/svg" viewBox="0 0 512 512">
  <defs>
    <style>
      .cls-1 {
        fill: #606060;
      }

      .cls-1, .cls-2, .cls-3 {
        stroke-width: 0px;
      }

      .cls-2 {
        fill: #000;
      }

      .cls-3 {
        fill: #fff;
      }
    </style>
  </defs>
  <rect class="cls-3" width="512" height="512" rx="48.56" ry="48.56"/>
  <g>
    <path class="cls-2" d="M329.63,423.83H107.84v-167.85c0-54.3,33.72-100.28,79.77-114.82,2.89-5.31,6.11-10.38,9.63-15.18-57.28,10.99-100.92,65.11-100.92,130v180.26h244.81v-48.2h-11.51v35.79ZM218.73,123.95c-1.53,0-3.05.03-4.58.1-3.82,4.19-7.35,8.68-10.56,13.44,4.95-.74,10-1.12,15.14-1.12,61.14,0,110.89,53.66,110.89,119.62v119.65h11.51v-119.65c0-72.8-54.91-132.03-122.4-132.03Z"/>
    <path class="cls-1" d="M293.27,75.75c-38.88,0-73.58,19.65-96.02,50.24,5.52-1.06,11.16-1.72,16.91-1.94,20.13-22.14,48.16-35.88,79.11-35.88,61.14,0,110.89,53.66,110.89,119.62v167.85h-63.02v12.42h74.53v-180.26c0-72.8-54.91-132.03-122.4-132.03ZM182.37,207.78c0-26.25,7.88-50.55,21.22-70.3-5.46.8-10.8,2.04-15.98,3.68-10.64,19.56-16.75,42.34-16.75,66.62v180.26h158.77v-12.42h-147.26v-167.85Z"/>
  </g>
</svg>